<svg xmlns="http://www.w3.org/2000/svg" xmlns:xlink="http://www.w3.org/1999/xlink" version="1.1" x="0px" y="0px" viewBox="0 0 100 100" enable-background="new 0 0 100 100" xml:space="preserve">
    <path fill="#fff" stroke-width="5" d="M7.304,43.785c-1.018,0-1.838,0.823-1.838,1.838v47.439c0,1.016,0.82,1.84,1.838,1.84h85.393  c1.016,0,1.84-0.824,1.84-1.84V45.623c0-1.015-0.822-1.838-1.84-1.838H7.304z M3.397,45.623c0-2.156,1.75-3.905,3.906-3.905h85.393  c2.158,0,3.906,1.749,3.906,3.905v47.439c0,2.156-1.748,3.904-3.906,3.904H7.304c-2.156,0-3.906-1.748-3.906-3.904V45.623  L3.397,45.623z M49.962,50.661c3.756,0,7.426,0.354,10.98,1.03c2.57,0.49,3.494,2.529,3.107,4.564  c-0.391,2.037-1.996,3.598-4.568,3.107c-3.08-0.588-6.268-0.895-9.52-0.895c-3.084,0-6.195,0.273-9.035,0.805  c-2.572,0.479-4.176-1.086-4.557-3.123c-0.379-2.037,0.553-4.076,3.125-4.557C42.786,50.983,46.39,50.661,49.962,50.661z   M17.995,11.6h8.779l-0.898-1.875c-0.09-0.126-0.15-0.277-0.178-0.458h-6.633C19.03,9.462,18.972,9.6,18.89,9.714L17.995,11.6z   M26.8,28.867c-0.025-0.177-0.035-0.373-0.025-0.591l0.014-0.285h-8.789v0.6c-0.004,2.755-1.629,5.673-2.643,7.117  c-1.127,1.604-2.264,2.57-3.025,4.288h-2.27c0.801-2.319,2.189-3.554,3.561-5.507c0.951-1.352,2.254-3.819,2.256-5.901l-0.004-0.217  c-0.234-5.288,0.02-9.533,0.314-12.386c0.098-0.95,0.203-1.899,0.363-2.833l-0.512-0.494c-0.195-0.154-0.342-0.371-0.385-0.628  c-0.051-0.254,0.008-0.508,0.139-0.723l1.176-2.49c0.105-1.069,0.922-1.649,1.803-1.67h7.188l0.098,0.002  c0.896,0.046,1.613,0.661,1.73,1.662l1.188,2.487c0.131,0.213,0.191,0.469,0.143,0.722c-0.043,0.258-0.189,0.477-0.387,0.63  l-0.52,0.501c0.02,0.108,0.041,0.24,0.062,0.404c0.129,0.87,0.279,2.068,0.408,3.557c0.244,2.798,0.412,6.628,0.207,11.259  c-0.008,0.202-0.006,0.405,0.012,0.611c0.154,2.014,1.361,4.258,2.24,5.507c1.4,1.995,2.75,3.145,3.562,5.507h-2.273  c-0.756-1.712-1.893-2.679-3.021-4.288c-0.957-1.36-2.422-3.98-2.621-6.551C26.78,29.054,26.786,28.956,26.8,28.867z M72.452,8.818  c0.104-1.069,0.92-1.649,1.799-1.67h7.191l0.096,0.002c0.898,0.046,1.615,0.661,1.73,1.662l1.188,2.487  c0.131,0.213,0.191,0.469,0.145,0.722c-0.045,0.258-0.189,0.477-0.387,0.63l-0.521,0.501c0.02,0.108,0.041,0.24,0.066,0.404  c0.125,0.87,0.275,2.068,0.404,3.557c0.244,2.798,0.414,6.628,0.207,11.259c-0.01,0.202-0.006,0.405,0.01,0.611  c0.156,2.014,1.363,4.258,2.242,5.507c1.402,1.995,2.752,3.145,3.562,5.507h-2.271c-0.758-1.712-1.893-2.679-3.023-4.288  c-0.955-1.36-2.422-3.981-2.619-6.551c-0.008-0.104-0.006-0.201,0.01-0.29c-0.025-0.177-0.035-0.373-0.025-0.591l0.012-0.285h-8.787  v0.6c-0.004,2.755-1.627,5.673-2.641,7.117c-1.131,1.604-2.266,2.57-3.025,4.288H65.54c0.807-2.319,2.191-3.554,3.564-5.507  c0.949-1.352,2.254-3.819,2.256-5.901l-0.004-0.217c-0.236-5.288,0.018-9.533,0.312-12.386c0.098-0.95,0.203-1.899,0.365-2.833  l-0.514-0.494c-0.195-0.154-0.342-0.371-0.385-0.628c-0.051-0.254,0.01-0.508,0.139-0.723L72.452,8.818z M73.478,11.6h8.777  l-0.896-1.875c-0.09-0.126-0.154-0.277-0.18-0.458h-6.633C74.513,9.462,74.45,9.6,74.368,9.714L73.478,11.6z M44.71,8.818  c0.105-1.069,0.922-1.649,1.803-1.67H53.7l0.098,0.002c0.896,0.046,1.615,0.661,1.73,1.662l1.189,2.487  c0.131,0.213,0.189,0.469,0.141,0.722c-0.043,0.258-0.189,0.477-0.387,0.63l-0.518,0.501c0.02,0.108,0.039,0.24,0.062,0.404  c0.127,0.87,0.277,2.068,0.408,3.557c0.24,2.798,0.41,6.628,0.205,11.259c-0.01,0.202-0.004,0.405,0.012,0.611  c0.154,2.014,1.361,4.258,2.242,5.507c1.398,1.995,2.75,3.145,3.561,5.507h-2.271c-0.758-1.712-1.895-2.679-3.023-4.288  c-0.955-1.36-2.42-3.981-2.619-6.551c-0.008-0.104-0.004-0.201,0.012-0.29c-0.025-0.177-0.037-0.373-0.027-0.591l0.012-0.285h-8.787  v0.6c-0.004,2.755-1.625,5.673-2.643,7.117c-1.127,1.604-2.264,2.57-3.021,4.288h-2.271c0.803-2.319,2.188-3.554,3.561-5.507  c0.951-1.352,2.254-3.819,2.258-5.901l-0.006-0.217c-0.236-5.288,0.02-9.533,0.314-12.386c0.098-0.95,0.201-1.899,0.363-2.833  l-0.512-0.494c-0.195-0.154-0.342-0.371-0.387-0.628c-0.049-0.254,0.01-0.508,0.139-0.723L44.71,8.818z M45.735,11.6h8.779  l-0.898-1.875c-0.088-0.126-0.15-0.277-0.178-0.458h-6.633C46.771,9.462,46.71,9.6,46.63,9.714L45.735,11.6z"></path>
</svg>