<?xml version="1.0" encoding="iso-8859-1"?>
<!-- Generator: Adobe Illustrator 18.0.0, SVG Export Plug-In . SVG Version: 6.00 Build 0)  -->
<!DOCTYPE svg PUBLIC "-//W3C//DTD SVG 1.1//EN" "http://www.w3.org/Graphics/SVG/1.1/DTD/svg11.dtd">
<svg xmlns="http://www.w3.org/2000/svg" xmlns:xlink="http://www.w3.org/1999/xlink" version="1.1" id="Capa_1" x="0px" y="0px" viewBox="0 0 395.451 395.451" style="enable-background:new 0 0 395.451 395.451;" xml:space="preserve" width="512px" height="512px">
<path d="M252.549,136.942c-4.478-8.023-7.712-13.82-7.712-20.823c0-21.903-8.03-84.708-9.769-98.056  c2.483-1.819,4.103-4.749,4.103-8.063c0-5.522-4.477-10-10-10H166.28c-5.523,0-10,4.478-10,10c0,3.314,1.62,6.244,4.103,8.063  c-1.739,13.348-9.769,76.152-9.769,98.056c0,7.003-3.235,12.8-7.712,20.823c-7.256,13.004-17.194,30.813-17.194,63.519V356  c0,29.02,21.03,38.472,32.151,39.415c0.281,0.024,0.563,0.036,0.845,0.036h78.043c0.282,0,0.564-0.012,0.845-0.036  c11.121-0.943,32.151-10.396,32.151-39.415V200.461C269.743,167.755,259.806,149.946,252.549,136.942z M221.727,302.936  l-6.066,1.951c-2.031,0.653-3.8,1.939-5.048,3.67l-3.719,5.157l-6.042-1.987c-2.029-0.668-4.22-0.668-6.249,0l-6.043,1.987  l-3.72-5.157c-1.248-1.732-3.018-3.017-5.049-3.67l-6.065-1.951l0.015-6.369c0.001-0.358-0.024-0.713-0.061-1.066h48.096  c-0.037,0.354-0.063,0.708-0.062,1.066L221.727,302.936z M173.724,210.768l6.066-1.951c2.031-0.653,3.8-1.939,5.048-3.67l3.72-5.157  l6.043,1.987c2.029,0.668,4.22,0.668,6.249,0l6.042-1.987l3.719,5.157c1.249,1.73,3.018,3.017,5.049,3.67l6.065,1.951l-0.015,6.37  c-0.003,0.976,0.145,1.939,0.419,2.862H173.32c0.274-0.925,0.421-1.888,0.419-2.864L173.724,210.768z M145.708,275.5V240h104.035  v35.5H145.708z M160.367,146.689c5.27-9.444,10.247-18.364,10.247-30.569c0-18.063,6.198-68.739,8.793-89.163h36.637  c2.595,20.424,8.793,71.1,8.793,89.163c0,12.205,4.978,21.125,10.247,30.569c6.871,12.313,14.659,26.27,14.659,53.772V220h-3.577  l-4.447-6.092l0.024-10.401c0.01-4.352-2.795-8.21-6.939-9.542l-9.893-3.182l-6.079-8.43c-2.55-3.535-7.095-5.015-11.235-3.65  l-9.872,3.246l-9.872-3.246c-4.142-1.364-8.686,0.113-11.235,3.65l-6.081,8.43l-9.894,3.183c-4.143,1.333-6.948,5.191-6.938,9.543  l0.024,10.399L149.284,220h-3.576v-19.539C145.708,172.958,153.496,159.002,160.367,146.689z M236.136,375.451h-76.821  c-3.651-0.529-13.607-3.452-13.607-19.451v-60.5h4.888l3.136,4.295l-0.024,10.4c-0.01,4.352,2.795,8.211,6.939,9.543l9.893,3.182  l6.08,8.43c2.55,3.535,7.096,5.013,11.235,3.649l9.872-3.246l9.872,3.246c1.029,0.339,2.082,0.502,3.123,0.502  c3.152-0.001,6.196-1.494,8.112-4.151l6.08-8.43l9.893-3.183c4.142-1.332,6.947-5.19,6.938-9.542l-0.024-10.4l3.135-4.295h4.889V356  C249.743,371.999,239.788,374.922,236.136,375.451z" fill="#FFFFFF"/>
</svg>
